<?xml version="1.0" encoding="utf-8"?>
<!-- Generator: Adobe Illustrator 16.0.0, SVG Export Plug-In . SVG Version: 6.00 Build 0)  -->
<!DOCTYPE svg PUBLIC "-//W3C//DTD SVG 1.1//EN" "http://www.w3.org/Graphics/SVG/1.1/DTD/svg11.dtd">
<svg version="1.1" xmlns="http://www.w3.org/2000/svg" xmlns:xlink="http://www.w3.org/1999/xlink" x="0px" y="0px" width="1000px"
	 height="1000px" viewBox="0 0 1000 1000" enable-background="new 0 0 1000 1000" xml:space="preserve">
<g id="Layer_1">
	<polygon fill="#FBB040" points="281.668,136.864 731.327,610.167 642.323,694.726 194.682,223.548 132.039,68.479 	"/>
	<polygon fill="#FFDE17" points="281.668,136.864 731.327,610.167 686.831,652.441 132.039,68.479 	"/>
	<path fill="#FBB040" d="M955.599,842.615c7.946,41.092-18.914,80.854-60.023,88.812c-41.082,7.96-80.853-18.917-88.814-59.998
		c-1.308-6.815-1.681-13.582-1.17-20.196l-108.38-116.084l-124.12,118.835c-3.704-83.538,13.146-144.584,40.833-189.151
		l29.093,30.622l89.003-84.559l-27.525-28.974c88.451-46.039,188.826-34.571,188.826-34.571L769.848,665.594l108.012,115.692
		C914.8,779.638,948.344,805.238,955.599,842.615z"/>
	<path fill="#FBB040" d="M698.946,576.081l32.381,34.086l-89.004,84.559L608.097,658.7c10.856-19.271,24.003-35.252,38.642-48.46
		C662.706,595.797,680.466,584.649,698.946,576.081z"/>
</g>
<g id="Layer_1_copy">
	<polygon fill="#FBB040" points="710.887,133.244 265.953,610.992 355.792,694.663 798.73,219.06 859.828,63.375 	"/>
	<polygon fill="#FFDE17" points="710.887,133.244 265.953,610.992 310.866,652.822 859.828,63.375 	"/>
	<path fill="#FBB040" d="M44.002,845.659c-7.537,41.171,19.719,80.662,60.905,88.21c41.158,7.553,80.661-19.718,88.213-60.879
		c1.239-6.825,1.546-13.596,0.968-20.203l107.219-117.156l125.297,117.594c2.873-83.57-14.583-144.445-42.71-188.734l-28.787,30.909
		l-89.84-83.672l27.235-29.244c-88.904-45.159-189.161-32.69-189.161-32.69l124.644,117.009L121.131,783.561
		C84.174,782.277,50.887,808.212,44.002,845.659z"/>
	<path fill="#FBB040" d="M297.994,576.588l-32.041,34.404l89.839,83.671l33.867-36.361c-11.047-19.166-24.351-35.014-39.12-48.077
		C334.429,595.941,316.559,584.972,297.994,576.588z"/>
</g>
</svg>
