<?xml version="1.0" encoding="utf-8"?>
<!-- Generator: Adobe Illustrator 16.0.0, SVG Export Plug-In . SVG Version: 6.00 Build 0)  -->
<!DOCTYPE svg PUBLIC "-//W3C//DTD SVG 1.1//EN" "http://www.w3.org/Graphics/SVG/1.1/DTD/svg11.dtd">
<svg version="1.1" id="Layer_1" xmlns="http://www.w3.org/2000/svg" xmlns:xlink="http://www.w3.org/1999/xlink" x="0px" y="0px"
	 width="1000px" height="1000px" viewBox="0 0 1000 1000" enable-background="new 0 0 1000 1000" xml:space="preserve">
<path fill="#FFFFFF" stroke="#000000" stroke-width="20" stroke-miterlimit="10" d="M68.864,621.066l62.58-77.022
	c0,0-62.58-57.766-62.58-129.973S92.934,40.999,478.04,40.999c385.105,0,440.464,262.354,440.464,317.712
	c0,55.359-4.813,132.38-40.916,182.925c43.324,67.394,55.358,79.43,55.358,79.43L762.055,741.411l31.292,204.588H208.465
	L220.5,736.597L68.864,621.066z"/>
<polyline stroke="#000000" stroke-miterlimit="10" points="446.75,418.884 466.005,466.062 427.495,534.417 203.652,534.417 
	153.106,428.513 244.57,325.015 "/>
<polyline stroke="#000000" stroke-miterlimit="10" points="553.618,418.884 534.363,466.062 572.875,534.417 796.718,534.417 
	847.263,428.513 755.8,325.015 "/>
<path stroke="#000000" stroke-miterlimit="10" d="M497.293,548.857L380.56,690.868c0,0,134.787-74.615,240.691,0"/>
<polygon stroke="#000000" stroke-miterlimit="10" points="322.255,945.999 333.143,763.073 345.178,763.073 334.289,945.999 "/>
<polygon stroke="#000000" stroke-miterlimit="10" points="680.612,945.999 669.723,763.073 657.689,763.073 668.578,945.999 "/>
<polyline stroke="#000000" stroke-miterlimit="10" points="490.074,763.073 490.074,945.999 500.905,945.999 503.793,763.073 "/>
</svg>
