<?xml version="1.0" encoding="utf-8"?>
<!-- Generator: Adobe Illustrator 16.0.0, SVG Export Plug-In . SVG Version: 6.00 Build 0)  -->
<!DOCTYPE svg PUBLIC "-//W3C//DTD SVG 1.1//EN" "http://www.w3.org/Graphics/SVG/1.1/DTD/svg11.dtd">
<svg version="1.1" id="Layer_1" xmlns="http://www.w3.org/2000/svg" xmlns:xlink="http://www.w3.org/1999/xlink" x="0px" y="0px"
	 width="1000px" height="1000px" viewBox="0 0 1000 1000" enable-background="new 0 0 1000 1000" xml:space="preserve">
<g>
	<polygon fill="#931A1D" points="11.777,766.305 798.443,40.856 988.223,209.209 170.947,959.145 	"/>
	<path fill="#931A1D" d="M602.543,913.229L948.43,634.682c0,0-538.728-511.179-544.85-508.118
		c-6.123,3.061-254.059,223.449-254.059,223.449L602.543,913.229z"/>
</g>
<g>
	<polygon fill="#BE1E2D" points="283.105,516.092 11.777,766.305 136.185,917.029 411.535,675.762 	"/>
	<path fill="#BE1E2D" d="M948.43,173.909l37.844,37.089l1.949-1.789L798.443,40.856L555.795,264.623
		c47.141,44,100.281,93.906,151.887,142.508L948.43,173.909z"/>
	<path fill="#BE1E2D" d="M411.535,675.762l152.807,189.976l336.848-275.825l-193.508-182.78v0
		c-51.605-48.602-104.746-98.508-151.887-142.508C471.039,185.515,405.689,125.51,403.58,126.564
		c-6.123,3.061-254.059,223.449-254.059,223.449l133.584,166.079L411.535,675.762L411.535,675.762z"/>
</g>
</svg>
