<?xml version="1.0" encoding="utf-8"?>
<!-- Generator: Adobe Illustrator 16.0.0, SVG Export Plug-In . SVG Version: 6.00 Build 0)  -->
<!DOCTYPE svg PUBLIC "-//W3C//DTD SVG 1.1//EN" "http://www.w3.org/Graphics/SVG/1.1/DTD/svg11.dtd">
<svg version="1.1" id="Layer_1" xmlns="http://www.w3.org/2000/svg" xmlns:xlink="http://www.w3.org/1999/xlink" x="0px" y="0px"
	 width="1000px" height="1000px" viewBox="0 0 1000 1000" enable-background="new 0 0 1000 1000" xml:space="preserve">
<g id="Layer_2">
	<polyline fill="#58595B" points="759.134,528.602 897.607,603.404 486.927,930.482 118.78,700.941 231.717,618.07 750.938,468.466 
		759.134,528.602 	"/>
	<polygon fill="#6D6E71" points="752.402,585.803 475.046,799.943 203.85,644.473 203.85,603.404 770.004,436.198 	"/>
	<polygon fill="#D1D3D4" points="146.647,268.992 580.796,37.25 888.808,175.122 475.046,437.664 	"/>
	<polyline fill="#808285" points="146.647,268.992 475.046,436.931 888.808,174.389 793.472,460.399 764.708,480.997 
		457.592,700.941 170.115,553.535 	"/>
	<polygon fill="#D1D3D4" points="177.448,343.794 385.722,453.798 42.511,528.602 	"/>
	<polygon fill="#939598" points="369.589,635.672 385.722,453.798 42.511,528.602 183.315,635.672 	"/>
	<path fill="#6D6E71" d="M1036.947,468.466"/>
	<polygon fill="#414042" points="897.607,635.672 486.927,962.75 118.78,726.607 118.78,700.941 486.927,930.482 897.607,603.404 	
		"/>
</g>
</svg>
