<?xml version="1.0" encoding="utf-8"?>
<!-- Generator: Adobe Illustrator 16.0.0, SVG Export Plug-In . SVG Version: 6.00 Build 0)  -->
<!DOCTYPE svg PUBLIC "-//W3C//DTD SVG 1.1//EN" "http://www.w3.org/Graphics/SVG/1.1/DTD/svg11.dtd">
<svg version="1.1" id="Layer_1" xmlns="http://www.w3.org/2000/svg" xmlns:xlink="http://www.w3.org/1999/xlink" x="0px" y="0px"
	 width="1000px" height="1000px" viewBox="0 0 1000 1000" enable-background="new 0 0 1000 1000" xml:space="preserve">
<g id="XMLID_1_">
	<g>
		<linearGradient id="SVGID_1_" gradientUnits="userSpaceOnUse" x1="461.6294" y1="1219.4404" x2="461.6293" y2="-207.6714">
			<stop  offset="0" style="stop-color:#F15A29"/>
			<stop  offset="1" style="stop-color:#F9ED32"/>
		</linearGradient>
		<path fill="url(#SVGID_1_)" d="M792.981,272.109c0.278,71.257,0.139,142.525,0.139,213.782c-0.324,0-0.648,0-0.973,0
			c0,68.776-0.186,137.541,0.069,206.317c0.174,44.52-8.754,87.001-27.827,127.095c-28.498,59.903-74.391,99.101-138.857,115.381
			c-35.18,8.885-70.916,11.284-107.069,9.386c-29.379-1.549-58.445-4.833-87.048-12.088
			c-44.514-11.284-81.768-34.283-112.547-68.462c-28.87-32.059-52.308-67.914-74.043-104.992
			c-37.531-63.99-73.673-128.772-107.116-195.033c-6.74-13.357-9.971-27.401-5.628-42.33c4.574-15.732,17.961-25.911,34.277-26.936
			c18.47-1.165,32.887,5.508,44.248,20.286c23.82,30.999,48.034,61.685,72.144,92.45c3.266,4.169,7.261,7.814,10.214,12.182
			c6.021,8.908,24.26,5.31,28.857-0.955c1.622-2.225,2.443-5.485,2.56-8.314c0.776-20.076,1.69-40.164,1.818-60.252
			c0.637-105.646,0.973-211.29,1.61-316.947c0.162-26.399,1.644-52.811,1.401-79.199c-0.243-26.458,25.882-39.419,44.317-37.579
			c16.316,1.63,27.306,11.482,36.211,24.303c0.822,1.188,0.811,3.133,0.822,4.716c0.695,96.177,1.424,192.354,1.853,288.543
			c0.023,6.603,1.818,11.005,7.006,15.058c12.217,9.561,26.483,7.255,34.126-6.23c0.741-1.316,0.695-3.179,0.707-4.798
			c0.683-115.613,1.54-231.226,1.737-346.839c0.023-14.09,6.253-23.441,16.259-30.929c21.574-16.129,50.605-7.756,62.972,16.256
			c1.795,3.482,2.016,8.035,2.119,12.111c0.765,30.056,1.645,60.112,1.865,90.168c0.637,85.883,0.949,171.766,1.481,257.637
			c0.023,3.307,0.012,7.5,1.865,9.724c3.995,4.81,9.229,8.35,15.992,8.932c8.604,0.745,14.938-3.424,20.45-9.211
			c1.111-1.165,1.158-3.645,1.17-5.532c0.475-65.446,0.775-130.892,1.354-196.337c0.313-36.379,0.927-72.747,1.783-109.115
			c0.162-6.836,0.868-14.161,3.485-20.344c5.849-13.846,18.182-18.469,32.17-19.086c5.895-0.268,11.974-0.128,17.729,1.048
			c4.342,0.885,9.264,2.76,12.24,5.846c9.032,9.386,15.945,20.064,16.015,34.027c0.383,71.42,0.753,142.852,1.401,214.283
			c0.324,35.203,1.297,70.407,1.842,105.61c0.127,7.744,1.309,14.661,9.426,17.992c8.523,3.494,16.479,2.12,23.797-3.272
			c3.811-2.807,5.675-6.405,5.732-11.436c0.95-73.085,1.923-146.159,3.242-219.232c0.243-13.415,6.937-24.606,16.954-32.967
			c8.754-7.302,19.976-6.382,30.455-4.996c19.768,2.597,28.58,11.447,32.17,33.143C791.974,247.188,792.935,259.718,792.981,272.109
			z"/>
	</g>
	<g>
	</g>
</g>
</svg>
