<?xml version="1.0" encoding="utf-8"?>
<!-- Generator: Adobe Illustrator 16.0.0, SVG Export Plug-In . SVG Version: 6.00 Build 0)  -->
<!DOCTYPE svg PUBLIC "-//W3C//DTD SVG 1.1//EN" "http://www.w3.org/Graphics/SVG/1.1/DTD/svg11.dtd">
<svg version="1.1" id="Layer_1" xmlns="http://www.w3.org/2000/svg" xmlns:xlink="http://www.w3.org/1999/xlink" x="0px" y="0px"
	 width="1000px" height="1000px" viewBox="0 0 1000 1000" enable-background="new 0 0 1000 1000" xml:space="preserve">
<path fill="#FFF200" d="M502.73,25.259c-179.355,0-324.751,69.307-324.751,154.801S323.375,334.862,502.73,334.862
	c179.354,0,324.75-69.307,324.75-154.802S682.085,25.259,502.73,25.259z M500.806,215.642c-139.024,0-251.725-32.521-251.725-72.638
	c0-40.117,112.701-72.638,251.725-72.638c139.022,0,251.724,32.521,251.724,72.638C752.529,183.121,639.828,215.642,500.806,215.642
	z"/>
<g>
	<path fill="#F1F2F2" d="M119.066,179.751c35.754,87.07,129.844,239.444,248.398,304.749
		c118.553,65.302,116.672,255.769,118.553,342.84c1.882,87.073-15.055,141.492-28.228,87.073
		c-13.172-54.421-26.345-269.377-71.508-326.517S162.349,398.408,119.066,179.751z"/>
	<path fill="#F1F2F2" d="M94.604,318.52c-56.077-131.762,43.281,168.699,154.307,285.7
		c111.026,117.004,159.953,160.538,159.953,160.538c-71.508-168.699-111.026-209.516-157.13-253.05
		C205.629,468.173,124.713,389.266,94.604,318.52z"/>
	<path fill="#F1F2F2" d="M46.143,512.043C-21.4,405.384,101.897,652.591,227.845,738.718
		c125.949,86.126,181.019,117.108,181.019,117.108C322.697,719.229,277.913,689.295,225.885,657.92
		C173.856,626.545,82.408,569.31,46.143,512.043z"/>
	<path fill="#F1F2F2" d="M117.965,778.68c-63.966-59.131,60.417,87.548,163.338,114.636
		c102.922,27.087,146.955,34.006,146.955,34.006c-81.68-75.832-118.176-84.953-160.082-93.041
		C226.27,826.19,152.309,810.431,117.965,778.68z"/>
</g>
<g>
	<path fill="#F1F2F2" d="M888.038,179.751c-35.755,87.07-129.843,239.444-248.397,304.749
		c-118.553,65.302-116.672,255.769-118.553,342.84c-1.882,87.073,15.055,141.492,28.228,87.073
		c13.172-54.421,26.345-269.377,71.508-326.517S844.757,398.408,888.038,179.751z"/>
	<path fill="#F1F2F2" d="M912.502,318.52c56.076-131.762-43.282,168.699-154.307,285.7
		C647.169,721.224,598.241,764.758,598.241,764.758c71.509-168.699,111.026-209.516,157.13-253.05
		C801.476,468.173,882.392,389.266,912.502,318.52z"/>
	<path fill="#F1F2F2" d="M960.963,512.043c67.544-106.659-55.755,140.548-181.702,226.675
		c-125.949,86.126-181.02,117.108-181.02,117.108c86.167-136.597,130.951-166.531,182.979-197.906S924.698,569.31,960.963,512.043z"
		/>
	<path fill="#F1F2F2" d="M889.14,778.68c63.967-59.131-60.416,87.548-163.338,114.636
		c-102.923,27.087-146.955,34.006-146.955,34.006c81.68-75.832,118.177-84.953,160.082-93.041
		C780.835,826.19,854.797,810.431,889.14,778.68z"/>
</g>
</svg>
