<?xml version="1.0" encoding="utf-8"?>
<!-- Generator: Adobe Illustrator 16.0.0, SVG Export Plug-In . SVG Version: 6.00 Build 0)  -->
<!DOCTYPE svg PUBLIC "-//W3C//DTD SVG 1.1//EN" "http://www.w3.org/Graphics/SVG/1.1/DTD/svg11.dtd">
<svg version="1.1" xmlns="http://www.w3.org/2000/svg" xmlns:xlink="http://www.w3.org/1999/xlink" x="0px" y="0px" width="1000px"
	 height="1000px" viewBox="0 0 1000 1000" enable-background="new 0 0 1000 1000" xml:space="preserve">
<g id="Layer_2_copy">
	<polygon fill="#FFE0A9" stroke="#000000" stroke-miterlimit="10" points="39.988,597.092 452.703,79.441 529.744,140.668 
		881.293,79.441 881.293,168.499 881.293,285.387 971.242,332.699 653.77,936.623 570.699,936.623 204.016,864.263 71.735,886.528 
		39.988,830.867 	"/>
</g>
<g id="Layer_2">
	<path fill="#944320" d="M896.945,94.484c0,0-324.783,576.127-326.905,576.127S50.602,619.25,50.602,619.25l18.467,203.208
		l16.982,40.194l120.997-17.865l433.044,55.828L948.59,320.784l37.512,21.569L661.318,951.974l-473.375-51.358l-140.102,2.233
		L13.898,570.903l416.04-518.846l131.611,44.661l337.52-33.495L896.945,94.484z"/>
	<polygon fill="#808285" points="899.068,63.223 896.945,94.484 570.04,670.611 468.24,660.636 468.24,637.114 831.145,69.964 	"/>
	<polygon fill="#808285" points="429.938,52.057 500,79.441 115.77,590.221 115.77,625.718 51.189,625.718 19.503,625.718 
		13.898,570.903 	"/>
	<polygon fill="#808285" points="69.068,822.458 86.051,862.652 128.27,856.418 128.27,901.566 47.841,902.849 19.503,625.718 
		51.189,625.718 	"/>
	<polygon fill="#808285" points="593.824,894.65 593.824,944.651 661.318,951.974 986.102,342.353 948.59,320.784 640.092,900.615 	
		"/>
</g>
</svg>
